<mxfile host="app.diagrams.net" agent="Mozilla/5.0 (Windows NT 10.0; Win64; x64) AppleWebKit/537.36 (KHTML, like Gecko) Chrome/121.0.0.0 Safari/537.36" version="26.0.6">
  <diagram name="第 1 页" id="9_vn-ut5mF6kdvNH0XEL">
    <mxGraphModel dx="1142" dy="748" grid="1" gridSize="10" guides="1" tooltips="1" connect="1" arrows="1" fold="1" page="1" pageScale="1" pageWidth="850" pageHeight="1100" math="0" shadow="0">
      <root>
        <mxCell id="0" />
        <mxCell id="1" parent="0" />
        <mxCell id="dkAhr44AGeoDQMJsQ8wD-1" value="SoC&amp;nbsp;" style="verticalAlign=top;align=left;spacingTop=8;spacingLeft=2;spacingRight=12;shape=cube;size=10;direction=south;fontStyle=4;html=1;whiteSpace=wrap;fillColor=#f5f5f5;fontColor=#333333;strokeColor=#666666;fontSize=18;strokeWidth=0.5;" vertex="1" parent="1">
          <mxGeometry x="80" y="70" width="720" height="530" as="geometry" />
        </mxCell>
        <mxCell id="dkAhr44AGeoDQMJsQ8wD-72" style="edgeStyle=orthogonalEdgeStyle;rounded=0;orthogonalLoop=1;jettySize=auto;html=1;exitX=1;exitY=0.5;exitDx=0;exitDy=0;entryX=0;entryY=0.5;entryDx=0;entryDy=0;endArrow=diamondThin;endFill=0;startArrow=classicThin;startFill=1;" edge="1" parent="1" source="dkAhr44AGeoDQMJsQ8wD-43" target="dkAhr44AGeoDQMJsQ8wD-44">
          <mxGeometry relative="1" as="geometry" />
        </mxCell>
        <mxCell id="dkAhr44AGeoDQMJsQ8wD-43" value="logcmd&lt;div&gt;for arm&lt;/div&gt;" style="shape=module;align=center;spacingLeft=20;align=center;verticalAlign=middle;whiteSpace=wrap;html=1;fillColor=#d5e8d4;strokeColor=#82b366;fontSize=14;" vertex="1" parent="1">
          <mxGeometry x="120" y="500" width="161" height="50" as="geometry" />
        </mxCell>
        <mxCell id="dkAhr44AGeoDQMJsQ8wD-53" value="外设环境" style="verticalAlign=top;align=left;spacingTop=8;spacingLeft=2;spacingRight=12;shape=cube;size=10;direction=south;fontStyle=5;html=1;whiteSpace=wrap;fontSize=18;fillColor=#E6E6E6;fontColor=#333333;strokeColor=#666666;strokeWidth=0.5;" vertex="1" parent="1">
          <mxGeometry x="80" y="640" width="720" height="280" as="geometry" />
        </mxCell>
        <mxCell id="dkAhr44AGeoDQMJsQ8wD-37" value="应用B" style="rounded=1;whiteSpace=wrap;html=1;absoluteArcSize=1;arcSize=14;strokeWidth=0.5;align=left;verticalAlign=top;strokeColor=#6c8ebf;fillColor=#dae8fc;" vertex="1" parent="1">
          <mxGeometry x="450" y="220" width="280" height="200" as="geometry" />
        </mxCell>
        <mxCell id="dkAhr44AGeoDQMJsQ8wD-80" value="" style="rounded=1;whiteSpace=wrap;html=1;absoluteArcSize=1;arcSize=14;strokeWidth=0.5;align=left;verticalAlign=top;strokeColor=#d6b656;fillColor=#fff2cc;fontSize=14;" vertex="1" parent="1">
          <mxGeometry x="472.5" y="250" width="235" height="150" as="geometry" />
        </mxCell>
        <mxCell id="dkAhr44AGeoDQMJsQ8wD-39" value="" style="ellipse;shape=umlControl;whiteSpace=wrap;html=1;fillColor=#fff2cc;strokeColor=#d6b656;" vertex="1" parent="1">
          <mxGeometry x="495" y="270" width="35" height="40" as="geometry" />
        </mxCell>
        <mxCell id="dkAhr44AGeoDQMJsQ8wD-40" value="LogMgr Thread" style="text;html=1;align=left;verticalAlign=middle;whiteSpace=wrap;rounded=0;fontSize=14;" vertex="1" parent="1">
          <mxGeometry x="535" y="275" width="120" height="30" as="geometry" />
        </mxCell>
        <mxCell id="dkAhr44AGeoDQMJsQ8wD-41" value="&lt;p style=&quot;margin:0px;margin-top:6px;text-align:center;&quot;&gt;&lt;b&gt;日志通信协议栈&lt;/b&gt;&lt;br&gt;&lt;/p&gt;&lt;hr size=&quot;1&quot; style=&quot;border-style:solid;&quot;&gt;&lt;p style=&quot;margin:0px;margin-left:8px;&quot;&gt;- Socket&lt;br&gt;- DDS&lt;/p&gt;&lt;p style=&quot;margin:0px;margin-left:8px;&quot;&gt;- 服务端 端口 B&lt;/p&gt;" style="align=left;overflow=fill;html=1;dropTarget=0;whiteSpace=wrap;fillColor=#ffe6cc;strokeColor=#d79b00;" vertex="1" parent="1">
          <mxGeometry x="540" y="310" width="140" height="80" as="geometry" />
        </mxCell>
        <mxCell id="dkAhr44AGeoDQMJsQ8wD-42" value="" style="shape=component;jettyWidth=8;jettyHeight=4;" vertex="1" parent="dkAhr44AGeoDQMJsQ8wD-41">
          <mxGeometry x="1" width="20" height="20" relative="1" as="geometry">
            <mxPoint x="-24" y="4" as="offset" />
          </mxGeometry>
        </mxCell>
        <mxCell id="dkAhr44AGeoDQMJsQ8wD-6" value="应用A" style="rounded=1;whiteSpace=wrap;html=1;absoluteArcSize=1;arcSize=14;strokeWidth=0.5;align=left;verticalAlign=top;strokeColor=#6c8ebf;fillColor=#dae8fc;" vertex="1" parent="1">
          <mxGeometry x="142.5" y="220" width="280" height="200" as="geometry" />
        </mxCell>
        <mxCell id="dkAhr44AGeoDQMJsQ8wD-79" value="" style="rounded=1;whiteSpace=wrap;html=1;absoluteArcSize=1;arcSize=14;strokeWidth=0.5;align=left;verticalAlign=top;strokeColor=#d6b656;fillColor=#fff2cc;fontSize=14;" vertex="1" parent="1">
          <mxGeometry x="165" y="250" width="235" height="150" as="geometry" />
        </mxCell>
        <mxCell id="dkAhr44AGeoDQMJsQ8wD-13" value="" style="ellipse;shape=umlControl;whiteSpace=wrap;html=1;fillColor=#fff2cc;strokeColor=#d6b656;" vertex="1" parent="1">
          <mxGeometry x="195" y="270" width="35" height="40" as="geometry" />
        </mxCell>
        <mxCell id="dkAhr44AGeoDQMJsQ8wD-14" value="LogMgr Thread" style="text;html=1;align=left;verticalAlign=middle;whiteSpace=wrap;rounded=0;fontSize=14;" vertex="1" parent="1">
          <mxGeometry x="235" y="275" width="120" height="30" as="geometry" />
        </mxCell>
        <mxCell id="dkAhr44AGeoDQMJsQ8wD-33" value="&lt;p style=&quot;margin:0px;margin-top:6px;text-align:center;&quot;&gt;&lt;b&gt;日志通信协议栈&lt;/b&gt;&lt;br&gt;&lt;/p&gt;&lt;hr style=&quot;border-style:solid;&quot;&gt;&lt;p style=&quot;margin:0px;margin-left:8px;&quot;&gt;- Socket&lt;br&gt;- DDS&lt;/p&gt;&lt;p style=&quot;margin:0px;margin-left:8px;&quot;&gt;- 服务端 端口 A&lt;/p&gt;" style="align=left;overflow=fill;html=1;dropTarget=0;whiteSpace=wrap;fillColor=#ffe6cc;strokeColor=#d79b00;fontSize=12;" vertex="1" parent="1">
          <mxGeometry x="240" y="310" width="140" height="80" as="geometry" />
        </mxCell>
        <mxCell id="dkAhr44AGeoDQMJsQ8wD-34" value="" style="shape=component;jettyWidth=8;jettyHeight=4;" vertex="1" parent="dkAhr44AGeoDQMJsQ8wD-33">
          <mxGeometry x="1" width="20" height="20" relative="1" as="geometry">
            <mxPoint x="-24" y="4" as="offset" />
          </mxGeometry>
        </mxCell>
        <mxCell id="dkAhr44AGeoDQMJsQ8wD-59" style="edgeStyle=orthogonalEdgeStyle;rounded=0;orthogonalLoop=1;jettySize=auto;html=1;exitX=1;exitY=0.25;exitDx=0;exitDy=0;entryX=0.25;entryY=1;entryDx=0;entryDy=0;strokeColor=#B3B3B3;startArrow=classic;startFill=1;strokeWidth=2;" edge="1" parent="1" source="dkAhr44AGeoDQMJsQ8wD-58" target="dkAhr44AGeoDQMJsQ8wD-44">
          <mxGeometry relative="1" as="geometry" />
        </mxCell>
        <mxCell id="dkAhr44AGeoDQMJsQ8wD-60" value="&lt;font style=&quot;font-size: 14px;&quot;&gt;方式1&lt;/font&gt;" style="edgeLabel;html=1;align=center;verticalAlign=middle;resizable=0;points=[];" vertex="1" connectable="0" parent="dkAhr44AGeoDQMJsQ8wD-59">
          <mxGeometry x="-0.6253" y="-4" relative="1" as="geometry">
            <mxPoint as="offset" />
          </mxGeometry>
        </mxCell>
        <mxCell id="dkAhr44AGeoDQMJsQ8wD-61" value="&lt;font style=&quot;font-size: 14px; color: rgb(102, 102, 102);&quot;&gt;&lt;b&gt;ADB&lt;/b&gt;&lt;/font&gt;" style="edgeLabel;html=1;align=center;verticalAlign=middle;resizable=0;points=[];" vertex="1" connectable="0" parent="dkAhr44AGeoDQMJsQ8wD-59">
          <mxGeometry x="0.3339" y="-2" relative="1" as="geometry">
            <mxPoint as="offset" />
          </mxGeometry>
        </mxCell>
        <mxCell id="dkAhr44AGeoDQMJsQ8wD-68" style="edgeStyle=orthogonalEdgeStyle;rounded=0;orthogonalLoop=1;jettySize=auto;html=1;exitX=1;exitY=0.75;exitDx=0;exitDy=0;startArrow=classic;startFill=1;strokeColor=#B3B3B3;strokeWidth=2;" edge="1" parent="1" source="dkAhr44AGeoDQMJsQ8wD-58">
          <mxGeometry relative="1" as="geometry">
            <mxPoint x="478" y="790" as="targetPoint" />
          </mxGeometry>
        </mxCell>
        <mxCell id="dkAhr44AGeoDQMJsQ8wD-69" value="&lt;font style=&quot;font-size: 14px;&quot;&gt;方式&lt;/font&gt;&lt;font style=&quot;font-size: 14px;&quot;&gt;2&lt;/font&gt;" style="edgeLabel;html=1;align=center;verticalAlign=middle;resizable=0;points=[];" vertex="1" connectable="0" parent="dkAhr44AGeoDQMJsQ8wD-68">
          <mxGeometry x="-0.551" y="1" relative="1" as="geometry">
            <mxPoint as="offset" />
          </mxGeometry>
        </mxCell>
        <mxCell id="dkAhr44AGeoDQMJsQ8wD-58" value="Terminal" style="html=1;whiteSpace=wrap;fillColor=#dae8fc;strokeColor=#6c8ebf;" vertex="1" parent="1">
          <mxGeometry x="125" y="730" width="110" height="80" as="geometry" />
        </mxCell>
        <mxCell id="dkAhr44AGeoDQMJsQ8wD-62" value="" style="group;strokeWidth=0.5;" vertex="1" connectable="0" parent="1">
          <mxGeometry x="320" y="470" width="285" height="110" as="geometry" />
        </mxCell>
        <mxCell id="dkAhr44AGeoDQMJsQ8wD-44" value="&amp;nbsp; &amp;nbsp; logcmd&lt;div&gt;&amp;nbsp; &amp;nbsp; (local client)&lt;/div&gt;" style="rounded=1;arcSize=10;whiteSpace=wrap;html=1;align=left;fillColor=#dae8fc;fontSize=14;verticalAlign=top;strokeColor=#6c8ebf;" vertex="1" parent="dkAhr44AGeoDQMJsQ8wD-62">
          <mxGeometry width="285" height="110" as="geometry" />
        </mxCell>
        <mxCell id="dkAhr44AGeoDQMJsQ8wD-45" value="&lt;p style=&quot;margin:0px;margin-top:6px;text-align:center;&quot;&gt;&lt;b&gt;日志通信协议栈&lt;/b&gt;&lt;br&gt;&lt;/p&gt;&lt;hr style=&quot;border-style:solid;&quot;&gt;&lt;p style=&quot;margin:0px;margin-left:8px;&quot;&gt;- Socket&lt;br&gt;- DDS&lt;/p&gt;&lt;p style=&quot;margin:0px;margin-left:8px;&quot;&gt;- 本地客户端&amp;nbsp;&lt;/p&gt;" style="align=left;overflow=fill;html=1;dropTarget=0;whiteSpace=wrap;fillColor=#ffe6cc;strokeColor=#d79b00;fontSize=12;" vertex="1" parent="dkAhr44AGeoDQMJsQ8wD-62">
          <mxGeometry x="131" y="20" width="140" height="80" as="geometry" />
        </mxCell>
        <mxCell id="dkAhr44AGeoDQMJsQ8wD-46" value="" style="shape=component;jettyWidth=8;jettyHeight=4;" vertex="1" parent="dkAhr44AGeoDQMJsQ8wD-45">
          <mxGeometry x="1" width="20" height="20" relative="1" as="geometry">
            <mxPoint x="-24" y="4" as="offset" />
          </mxGeometry>
        </mxCell>
        <mxCell id="dkAhr44AGeoDQMJsQ8wD-63" value="" style="group;strokeWidth=0.5;" vertex="1" connectable="0" parent="1">
          <mxGeometry x="480" y="735" width="285" height="155" as="geometry" />
        </mxCell>
        <mxCell id="dkAhr44AGeoDQMJsQ8wD-64" value="&amp;nbsp; &amp;nbsp; logcmd&lt;div&gt;&amp;nbsp; &amp;nbsp; (remote client)&lt;/div&gt;" style="rounded=1;arcSize=10;whiteSpace=wrap;html=1;align=left;fillColor=#dae8fc;fontSize=14;verticalAlign=top;strokeColor=#6c8ebf;" vertex="1" parent="dkAhr44AGeoDQMJsQ8wD-63">
          <mxGeometry width="285" height="155" as="geometry" />
        </mxCell>
        <mxCell id="dkAhr44AGeoDQMJsQ8wD-65" value="&lt;p style=&quot;margin:0px;margin-top:6px;text-align:center;&quot;&gt;&lt;b&gt;日志通信协议栈&lt;/b&gt;&lt;br&gt;&lt;/p&gt;&lt;hr style=&quot;border-style:solid;&quot;&gt;&lt;p style=&quot;margin:0px;margin-left:8px;&quot;&gt;- Socket&lt;br&gt;- DDS&lt;/p&gt;&lt;p style=&quot;margin:0px;margin-left:8px;&quot;&gt;- 远程客户端&amp;nbsp;&lt;/p&gt;" style="align=left;overflow=fill;html=1;dropTarget=0;whiteSpace=wrap;fillColor=#ffe6cc;strokeColor=#d79b00;fontSize=12;" vertex="1" parent="dkAhr44AGeoDQMJsQ8wD-63">
          <mxGeometry x="131" y="28.181818181818183" width="140" height="112.72727272727273" as="geometry" />
        </mxCell>
        <mxCell id="dkAhr44AGeoDQMJsQ8wD-66" value="" style="shape=component;jettyWidth=8;jettyHeight=4;" vertex="1" parent="dkAhr44AGeoDQMJsQ8wD-65">
          <mxGeometry x="1" width="20" height="20" relative="1" as="geometry">
            <mxPoint x="-24" y="4" as="offset" />
          </mxGeometry>
        </mxCell>
        <mxCell id="dkAhr44AGeoDQMJsQ8wD-76" style="edgeStyle=orthogonalEdgeStyle;rounded=0;orthogonalLoop=1;jettySize=auto;html=1;exitX=1;exitY=0.5;exitDx=0;exitDy=0;endArrow=diamondThin;endFill=0;startArrow=classicThin;startFill=1;" edge="1" parent="1" source="dkAhr44AGeoDQMJsQ8wD-67">
          <mxGeometry relative="1" as="geometry">
            <mxPoint x="480" y="855" as="targetPoint" />
          </mxGeometry>
        </mxCell>
        <mxCell id="dkAhr44AGeoDQMJsQ8wD-67" value="logcmd&lt;div&gt;for i386&lt;/div&gt;" style="shape=module;align=center;spacingLeft=20;align=center;verticalAlign=middle;whiteSpace=wrap;html=1;fillColor=#d5e8d4;strokeColor=#82b366;fontSize=14;" vertex="1" parent="1">
          <mxGeometry x="281" y="830" width="161" height="50" as="geometry" />
        </mxCell>
        <mxCell id="dkAhr44AGeoDQMJsQ8wD-70" style="edgeStyle=orthogonalEdgeStyle;rounded=0;orthogonalLoop=1;jettySize=auto;html=1;exitX=0.5;exitY=0;exitDx=0;exitDy=0;entryX=0.5;entryY=1;entryDx=0;entryDy=0;strokeWidth=2;strokeColor=#d79b00;startArrow=classic;startFill=1;dashed=1;fillColor=#ffe6cc;" edge="1" parent="1" source="dkAhr44AGeoDQMJsQ8wD-65" target="dkAhr44AGeoDQMJsQ8wD-41">
          <mxGeometry relative="1" as="geometry">
            <Array as="points">
              <mxPoint x="681" y="750" />
              <mxPoint x="680" y="750" />
              <mxPoint x="680" y="440" />
              <mxPoint x="610" y="440" />
            </Array>
          </mxGeometry>
        </mxCell>
        <mxCell id="dkAhr44AGeoDQMJsQ8wD-77" value="&lt;font style=&quot;font-size: 14px;&quot;&gt;&lt;b&gt;Ethernet&lt;/b&gt;&lt;/font&gt;" style="edgeLabel;html=1;align=center;verticalAlign=middle;resizable=0;points=[];fontColor=#666666;" vertex="1" connectable="0" parent="dkAhr44AGeoDQMJsQ8wD-70">
          <mxGeometry x="-0.8382" relative="1" as="geometry">
            <mxPoint x="-1" y="-47" as="offset" />
          </mxGeometry>
        </mxCell>
        <mxCell id="dkAhr44AGeoDQMJsQ8wD-50" style="edgeStyle=orthogonalEdgeStyle;rounded=0;orthogonalLoop=1;jettySize=auto;html=1;exitX=0.5;exitY=1;exitDx=0;exitDy=0;entryX=0.5;entryY=0;entryDx=0;entryDy=0;startArrow=classicThin;startFill=1;endArrow=classicThin;endFill=1;strokeColor=#d79b00;strokeWidth=2;fillColor=#ffe6cc;" edge="1" parent="1" source="dkAhr44AGeoDQMJsQ8wD-33" target="dkAhr44AGeoDQMJsQ8wD-45">
          <mxGeometry relative="1" as="geometry" />
        </mxCell>
        <mxCell id="dkAhr44AGeoDQMJsQ8wD-51" style="edgeStyle=orthogonalEdgeStyle;rounded=0;orthogonalLoop=1;jettySize=auto;html=1;exitX=0.5;exitY=1;exitDx=0;exitDy=0;entryX=0.5;entryY=0;entryDx=0;entryDy=0;endArrow=classicThin;endFill=1;startArrow=classicThin;startFill=1;strokeColor=#d79b00;strokeWidth=2;fillColor=#ffe6cc;" edge="1" parent="1" source="dkAhr44AGeoDQMJsQ8wD-41" target="dkAhr44AGeoDQMJsQ8wD-45">
          <mxGeometry relative="1" as="geometry" />
        </mxCell>
        <mxCell id="dkAhr44AGeoDQMJsQ8wD-78" value="Actor" style="shape=umlActor;verticalLabelPosition=bottom;verticalAlign=top;html=1;fontColor=none;noLabel=1;" vertex="1" parent="1">
          <mxGeometry x="40" y="740" width="30" height="60" as="geometry" />
        </mxCell>
        <mxCell id="dkAhr44AGeoDQMJsQ8wD-85" value="LogMgr" style="shape=module;align=left;spacingLeft=20;align=center;verticalAlign=top;whiteSpace=wrap;html=1;fillColor=#d5e8d4;strokeColor=#82b366;" vertex="1" parent="1">
          <mxGeometry x="180" y="100" width="490" height="70" as="geometry" />
        </mxCell>
        <mxCell id="dkAhr44AGeoDQMJsQ8wD-86" value="" style="html=1;shadow=0;dashed=0;align=center;verticalAlign=middle;shape=mxgraph.arrows2.uTurnArrow;dy=11;arrowHead=43;dx2=36.25;direction=south;fillColor=#FFF2CC;strokeColor=#82b366;gradientColor=#D4E1F5;" vertex="1" parent="1">
          <mxGeometry x="245" y="170" width="100" height="50" as="geometry" />
        </mxCell>
        <mxCell id="dkAhr44AGeoDQMJsQ8wD-87" value="«interface»&lt;br&gt;&lt;b&gt;LogMgr API&lt;/b&gt;" style="html=1;whiteSpace=wrap;fillColor=#9AC7BF;strokeColor=#82b366;" vertex="1" parent="1">
          <mxGeometry x="267.5" y="140" width="345" height="30" as="geometry" />
        </mxCell>
        <mxCell id="dkAhr44AGeoDQMJsQ8wD-88" value="" style="html=1;shadow=0;dashed=0;align=center;verticalAlign=middle;shape=mxgraph.arrows2.uTurnArrow;dy=11;arrowHead=43;dx2=36.25;direction=south;fillColor=#FFF2CC;strokeColor=#82b366;gradientColor=#D4E1F5;" vertex="1" parent="1">
          <mxGeometry x="490" y="170" width="100" height="50" as="geometry" />
        </mxCell>
        <mxCell id="dkAhr44AGeoDQMJsQ8wD-89" value="DLT INIT" style="text;html=1;align=center;verticalAlign=middle;whiteSpace=wrap;rounded=0;fontSize=14;" vertex="1" parent="1">
          <mxGeometry x="331.5" y="180" width="60" height="30" as="geometry" />
        </mxCell>
        <mxCell id="dkAhr44AGeoDQMJsQ8wD-90" value="DLT INIT" style="text;html=1;align=center;verticalAlign=middle;whiteSpace=wrap;rounded=0;fontSize=14;" vertex="1" parent="1">
          <mxGeometry x="580" y="180" width="60" height="30" as="geometry" />
        </mxCell>
        <mxCell id="dkAhr44AGeoDQMJsQ8wD-94" value="运行中的应用" style="text;html=1;align=center;verticalAlign=middle;whiteSpace=wrap;rounded=0;" vertex="1" parent="1">
          <mxGeometry x="80" y="180" width="100" height="30" as="geometry" />
        </mxCell>
      </root>
    </mxGraphModel>
  </diagram>
</mxfile>
